<svg viewBox="-31 0 512 512" xmlns="http://www.w3.org/2000/svg"><path d="m90 90c0-33.089844 26.910156-60 60-60s60 26.910156 60 60v30h-60v30h150v-30h-60v-30c0-33.089844 26.910156-60 60-60s60 26.910156 60 60v45h30v-45c0-49.628906-40.371094-90-90-90-31.308594 0-58.871094 16.109375-75 40.433594-16.128906-24.324219-43.691406-40.433594-75-40.433594-49.628906 0-90 40.371094-90 90v45h30zm0 0"/><path d="m0 180v30h30.761719c7.707031 100.515625 91.78125 181 194.238281 181s186.53125-80.484375 194.238281-181h30.761719v-30zm0 0"/><path d="m330 430.859375c0-11.664063-1.074219-23.207031-2.894531-34.617187-30.683594 15.710937-65.328125 24.757812-102.105469 24.757812s-71.421875-9.046875-102.105469-24.757812c-1.820312 11.410156-2.894531 22.953124-2.894531 34.617187v51.140625h-30v30h270v-30h-30zm0 0"/></svg>